# xmcd
#
# Track frame offsets:
#	150
#	15622
#	27879
#	39964
#	51183
#	62192
#	76193
#	88268
#	102116
#	115063
#	129597
#	143686
#
# Disc length: 2155 seconds
#
# Revision: 0
# Processed by: cddbd v1.5.2PL0 Copyright (c) Steve Scherf et al.
# Submitted via: EasyCDDAExtractor 11.0.0.1
#
DISCID=9308690c
DTITLE=ΤΑ ΠΑΙΔΙΑ ΑΠΟ ΤΗΝ ΠΑΤΡΑ - ΠΑΙΔΕΣ ΕΝΤΑΞΕΙ
DYEAR=1998
DGENRE=ΛΑΪΚΑ
TTITLE0=Για λίγες σταγόνες ευτυχίας
TTITLE1=Αστεράκι φωτεινό
TTITLE2=Πάτρα Ελευσίνα
TTITLE3=Έγιναν γκρίζα τα μαλλιά μου
TTITLE4=Άχ τσιγγάνα μου
TTITLE5=Σού 'χει λάχει
TTITLE6=Φύγε να βρείς τη μοίρα σου
TTITLE7=Αναμνήσεις
TTITLE8=Ήρθες απόψε
TTITLE9=Θάνος
TTITLE10=Περιφρόνα με γλυκειά μου
TTITLE11=Η παλιοπαρέα
EXTD=
EXTT0=
EXTT1=
EXTT2=
EXTT3=
EXTT4=
EXTT5=
EXTT6=
EXTT7=
EXTT8=
EXTT9=
EXTT10=
EXTT11=
PLAYORDER=
